<svg width="206" height="21" viewBox="0 0 206 21" fill="none" xmlns="http://www.w3.org/2000/svg">
<g clip-path="url(#clip0_77_647)">
<path d="M8.88182 21.007C7.37606 21.007 6.0667 20.7452 4.9592 20.2214C3.8517 19.6977 2.92969 18.9721 2.19318 18.0419C1.45666 17.1117 0.908368 16.0042 0.545567 14.7194C0.182765 13.4346 0 12.0297 0 10.5049C0 8.98002 0.182765 7.54791 0.545567 6.2631C0.908368 4.97829 1.45939 3.87079 2.19318 2.9406C2.92969 2.01041 3.8517 1.28754 4.9592 0.774704C6.0667 0.259144 7.37333 0 8.88182 0C10.033 0 11.1105 0.190948 12.1116 0.572845C13.1127 0.954741 13.9829 1.48667 14.7167 2.16863C15.4532 2.85058 16.0342 3.67166 16.457 4.62913C16.8826 5.5866 17.1035 6.65046 17.1226 7.8207H13.1072C13.0363 7.28877 12.8863 6.79776 12.6544 6.34494C12.4226 5.89212 12.1361 5.50749 11.7897 5.18834C11.4433 4.86918 11.0505 4.62095 10.6058 4.44364C10.1612 4.26633 9.69199 4.17631 9.19552 4.17631C8.36081 4.17631 7.6543 4.36726 7.06781 4.74916C6.48133 5.13105 6.00942 5.62206 5.64661 6.22491C5.28381 6.82776 5.01648 7.507 4.85009 8.25988C4.68096 9.01276 4.5964 9.76291 4.5964 10.5076C4.5964 11.2523 4.68096 11.9997 4.85009 12.7553C5.01921 13.5082 5.28381 14.1875 5.64661 14.7903C6.00942 15.3932 6.48406 15.8842 7.06781 16.2661C7.65157 16.648 8.36081 16.8389 9.19552 16.8389C9.69199 16.8389 10.1612 16.7489 10.6058 16.5716C11.0477 16.3943 11.4433 16.146 11.7897 15.8269C12.1361 15.5077 12.4226 15.1231 12.6544 14.6703C12.8836 14.2175 13.0363 13.7265 13.1072 13.1945H17.1226C17.1035 14.3648 16.8826 15.4286 16.457 16.3861C16.0315 17.3436 15.4504 18.1646 14.7167 18.8466C13.9801 19.5286 13.1127 20.0605 12.1116 20.4424C11.1105 20.8243 10.033 21.0152 8.88182 21.0152V21.007Z" fill="url(#paint0_linear_77_647)"/>
<path d="M16.4324 0.425537H21.6453L26.2199 8.37717L30.7645 0.425537H36.0019L28.4513 12.949V20.5815H23.9831V12.949L16.4324 0.425537Z" fill="url(#paint1_linear_77_647)"/>
<path d="M37.0658 20.5815V0.425537H46.5859C47.437 0.425537 48.2172 0.553745 48.9264 0.810162C49.6356 1.06658 50.2467 1.42938 50.7622 1.90129C51.2751 2.37048 51.6761 2.92969 51.9598 3.57618C52.2435 4.22268 52.3853 4.93737 52.3853 5.71753C52.3853 6.675 52.1944 7.52609 51.8125 8.27078C51.4306 9.01548 50.9041 9.61833 50.2303 10.0793C51.1169 10.5403 51.8179 11.1868 52.3307 12.0216C52.8436 12.8563 53.1027 13.811 53.1027 14.894C53.1027 15.745 52.9554 16.5198 52.6635 17.2208C52.3717 17.9219 51.9598 18.5193 51.4278 19.0157C50.8959 19.5122 50.263 19.8968 49.5265 20.1723C48.79 20.4478 47.9717 20.5842 47.066 20.5842H37.0685L37.0658 20.5815ZM41.534 4.17631V8.00618H45.3884C46.1849 8.00618 46.7851 7.83433 47.1833 7.4879C47.5816 7.14146 47.7807 6.65864 47.7807 6.03942C47.7807 5.45293 47.5816 4.99739 47.1833 4.67005C46.7851 4.34271 46.1849 4.17904 45.3884 4.17904H41.534V4.17631ZM41.534 11.7269V16.8335H45.683C46.6405 16.8335 47.3443 16.6125 47.7971 16.1679C48.2499 15.726 48.4763 15.0767 48.4763 14.2284C48.4763 13.4291 48.2445 12.8154 47.7862 12.3789C47.3252 11.9452 46.6241 11.7269 45.6857 11.7269H41.5367H41.534Z" fill="url(#paint2_linear_77_647)"/>
<path d="M55.0667 20.5815V0.425537L68.4686 0.452815V4.17631H59.5349V8.6445H67.4047V12.368H59.5349V16.8362H68.4686V20.5842H55.0667V20.5815Z" fill="url(#paint3_linear_77_647)"/>
<path d="M86.1776 20.5544H81.7094V12.9765H77.2412C76.4447 12.9765 75.9073 13.1401 75.6318 13.4675C75.3563 13.7948 75.2199 14.2176 75.2199 14.7305V19.1441L74.7153 20.5544H70.3807L70.7272 19.1441V14.4386C70.7272 12.5427 71.6928 11.3643 73.6241 10.9033C72.7212 10.4423 72.012 9.79582 71.4964 8.9611C70.9836 8.12912 70.7244 7.16073 70.7244 6.06142C70.7244 5.21033 70.8717 4.43836 71.1636 3.74822C71.4555 3.05807 71.8674 2.46341 72.3993 1.96694C72.9313 1.47048 73.5641 1.08585 74.3006 0.81034C75.0371 0.534829 75.8555 0.398438 76.7611 0.398438H86.1749V4.12193H78.1441C77.1867 4.12193 76.4829 4.34834 76.0301 4.80116C75.5773 5.25398 75.3508 5.90593 75.3508 6.75429C75.3508 7.53445 75.5827 8.14275 76.041 8.57648C76.502 9.01021 77.203 9.22843 78.1414 9.22843H86.1722V20.5544H86.1776Z" fill="url(#paint4_linear_77_647)"/>
<path d="M102.337 4.14921C102.045 3.37178 101.631 2.70073 101.102 2.13879C100.572 1.58232 99.9368 1.15405 99.2003 0.84853C98.4637 0.548468 97.6454 0.398438 96.7425 0.398438H87.3315V4.1192H95.3595C96.3169 4.1192 97.0235 4.34288 97.4708 4.79843C97.9236 5.25125 98.15 5.90048 98.15 6.75429C98.15 7.53172 97.9209 8.14003 97.4572 8.57375C96.9989 9.01021 96.2978 9.2257 95.3567 9.2257H87.3287V20.5517H91.7915V12.9737H96.7398C97.6263 12.9737 98.4337 12.8264 99.1702 12.5209C99.9068 12.2209 100.542 11.7981 101.072 11.2498C101.601 10.696 102.021 10.0413 102.321 9.28026C102.621 8.51647 102.774 7.6763 102.774 6.75429C102.774 5.83228 102.626 4.92937 102.335 4.14648L102.337 4.14921Z" fill="url(#paint5_linear_77_647)"/>
<path d="M122.982 6.43789C122.542 5.16126 121.893 4.04285 121.045 3.08538C120.191 2.12791 119.149 1.37776 117.908 0.829463C116.664 0.275713 115.248 0.00292969 113.652 0.00292969C112.057 0.00292969 110.663 0.281169 109.421 0.840374C108.18 1.40231 107.138 2.15792 106.284 3.11539C105.436 4.07286 104.784 5.18854 104.334 6.45425C103.881 7.7227 103.655 9.07025 103.655 10.5078C103.655 11.9454 103.879 13.2957 104.334 14.5614C104.784 15.8298 105.436 16.94 106.284 17.8975C107.138 18.855 108.18 19.6133 109.421 20.1725C110.663 20.729 112.073 21.0127 113.652 21.0127C115.232 21.0127 116.642 20.729 117.883 20.1725C119.124 19.616 120.166 18.855 121.02 17.8975C121.869 16.94 122.521 15.8298 122.971 14.5614C123.423 13.2929 123.65 11.9399 123.65 10.5078C123.65 9.0757 123.429 7.71724 122.984 6.44061L122.982 6.43789ZM118.702 12.8428C118.492 13.6257 118.161 14.3268 117.717 14.946C117.278 15.5652 116.716 16.0699 116.039 16.4599C115.865 16.5636 115.679 16.6536 115.485 16.7245V16.8718C115.485 17.8975 114.659 18.724 113.633 18.724C112.608 18.724 111.781 17.8975 111.781 16.8718V16.7191C111.593 16.6427 111.413 16.5581 111.241 16.4572C110.559 16.0671 109.997 15.5625 109.55 14.9433C109.105 14.324 108.778 13.623 108.565 12.8401C108.355 12.0627 108.246 11.2798 108.246 10.5024C108.246 9.72493 108.355 8.94204 108.565 8.15915C108.775 7.38172 109.105 6.68066 109.55 6.06145C109.994 5.44223 110.556 4.93758 111.241 4.5475C111.92 4.15742 112.725 3.96374 113.647 3.96374C114.569 3.96374 115.368 4.15742 116.039 4.5475C116.713 4.93758 117.275 5.44223 117.717 6.06145C118.161 6.68066 118.489 7.38172 118.702 8.15915C118.912 8.94204 119.021 9.71947 119.021 10.5024C119.021 11.2852 118.912 12.0627 118.702 12.8401V12.8428Z" fill="url(#paint6_linear_77_647)"/>
<path d="M140.44 12.4065C140.183 11.8118 139.845 11.3017 139.428 10.8789C139.013 10.4506 138.538 10.1015 138.006 9.82594C137.472 9.55043 136.923 9.31856 136.356 9.11943C135.789 8.92575 135.238 8.75936 134.692 8.62842C134.152 8.49476 133.672 8.37746 133.244 8.26835C132.551 8.07467 131.972 7.89463 131.501 7.73915C131.034 7.57821 130.66 7.41181 130.385 7.23177C130.109 7.05719 129.907 6.84987 129.787 6.62074C129.662 6.3916 129.599 6.11609 129.599 5.79693C129.599 5.21317 129.883 4.75763 130.439 4.43847C130.996 4.11931 131.746 3.9611 132.687 3.9611C133.819 3.9611 134.67 4.13568 135.24 4.4903C135.808 4.84492 136.135 5.47505 136.22 6.37796H140.238C140.183 5.5296 140.014 4.71398 139.73 3.94746C139.447 3.17548 139.016 2.49625 138.427 1.9125C137.843 1.32874 137.095 0.859554 136.184 0.518575C135.268 0.17214 134.157 -0.00244141 132.845 -0.00244141C131.852 -0.00244141 130.887 0.131222 129.946 0.39855C129.007 0.66315 128.17 1.06414 127.433 1.59334C126.7 2.12254 126.108 2.79904 125.652 3.61467C125.199 4.42756 124.973 5.39594 124.973 6.5089C124.973 7.70096 125.216 8.64752 125.707 9.35948C126.192 10.066 126.811 10.6307 127.567 11.0589C128.317 11.4872 129.141 11.8145 130.025 12.0437C130.911 12.2728 131.754 12.5074 132.551 12.7365C133.17 12.9111 133.71 13.0748 134.174 13.2139C134.632 13.3585 135.014 13.514 135.317 13.694C135.617 13.8686 135.846 14.0814 135.996 14.3187C136.149 14.556 136.22 14.8533 136.22 15.208C136.22 15.8272 135.941 16.2909 135.385 16.5937C134.828 16.8938 134.032 17.0438 133.006 17.0438C131.694 17.0438 130.709 16.8637 130.052 16.5009C129.395 16.1381 129.005 15.5107 128.885 14.6269H124.839C125.019 16.6128 125.778 18.1731 127.128 19.3052C128.475 20.4372 130.355 21.0101 132.764 21.0101C133.756 21.0101 134.736 20.8791 135.704 20.6227C136.67 20.3663 137.529 19.9653 138.285 19.4279C139.035 18.8851 139.651 18.2058 140.118 17.3929C140.59 16.5801 140.824 15.6117 140.824 14.4933C140.824 13.6967 140.693 13.0011 140.437 12.4065H140.44Z" fill="url(#paint7_linear_77_647)"/>
<path d="M141.411 0.428833V4.17688H146.891V20.5821H151.354V4.17688H156.834V0.428833H141.411Z" fill="url(#paint8_linear_77_647)"/>
<path d="M168.242 0.428833V13.5088C168.242 13.9371 168.184 14.3571 168.067 14.7718C167.955 15.1891 167.775 15.5683 167.538 15.9038C167.301 16.2421 166.998 16.5149 166.635 16.7276C166.272 16.9377 165.83 17.0468 165.317 17.0468C164.805 17.0468 164.387 16.9377 164.014 16.7276C163.64 16.5176 163.332 16.2421 163.083 15.9038C162.835 15.5656 162.652 15.1891 162.541 14.7718C162.423 14.3571 162.366 13.9343 162.366 13.5088V0.428833H157.903V13.5088C157.903 14.6818 158.07 15.7238 158.408 16.6458C158.746 17.5678 159.226 18.3534 159.856 18.9999C160.486 19.6464 161.264 20.1429 162.186 20.4866C163.108 20.8303 164.155 21.0076 165.323 21.0076C166.49 21.0076 167.538 20.833 168.46 20.4866C169.382 20.1402 170.159 19.6464 170.789 18.9999C171.42 18.3534 171.9 17.5651 172.238 16.6458C172.576 15.7265 172.743 14.6818 172.743 13.5088V0.428833H168.253H168.242Z" fill="url(#paint9_linear_77_647)"/>
<path d="M190.629 19.1718V14.4935C190.629 13.5006 190.381 12.7177 189.895 12.1421C189.404 11.5666 188.687 11.1629 187.729 10.9283C188.632 10.47 189.344 9.82349 189.854 8.9915C190.367 8.15406 190.626 7.19931 190.626 6.11909C190.626 5.26528 190.479 4.49058 190.187 3.78952C189.895 3.08847 189.481 2.49107 188.951 1.99734C188.422 1.49814 187.787 1.11625 187.05 0.838008C186.314 0.562497 185.495 0.428833 184.592 0.428833H175.181V20.5848H179.644V13.0069H184.112C184.911 13.0069 185.446 13.1678 185.722 13.4979C185.997 13.8252 186.136 14.248 186.136 14.7609V19.1745L186.641 20.5848H190.978L190.632 19.1745L190.629 19.1718ZM185.312 8.63143C184.849 9.06242 184.148 9.28338 183.209 9.28338H179.644V4.17688H183.209C184.167 4.17688 184.873 4.39783 185.326 4.84247C185.776 5.28165 186 5.93087 186 6.78468C186 7.58121 185.771 8.19497 185.312 8.63143Z" fill="url(#paint10_linear_77_647)"/>
<path d="M192.506 20.5819V0.425903L205.908 0.453182V4.17667H196.974V8.64486H204.844V12.3684H196.974V16.8365H205.908V20.5846H192.506V20.5819Z" fill="url(#paint11_linear_77_647)"/>
<path d="M113.636 7.44409C112.283 7.44409 111.187 8.54068 111.187 9.89369C111.187 10.9575 111.871 11.8577 112.82 12.1932V14.7929C112.82 15.243 113.186 15.6085 113.636 15.6085C114.086 15.6085 114.452 15.243 114.452 14.7929V12.1932C115.401 11.855 116.083 10.9575 116.086 9.89369C116.086 8.54068 114.986 7.44409 113.633 7.44409H113.636ZM113.636 10.7093C113.186 10.7093 112.82 10.3438 112.82 9.89369C112.82 9.44359 113.186 9.07534 113.636 9.07534C114.089 9.07534 114.452 9.44359 114.454 9.89369C114.454 10.3438 114.089 10.7093 113.636 10.7093Z" fill="url(#paint12_linear_77_647)"/>
</g>
<defs>
<linearGradient id="paint0_linear_77_647" x1="8.36899" y1="10.3821" x2="203.382" y2="67.2138" gradientUnits="userSpaceOnUse">
<stop stop-color="white"/>
<stop offset="0.07" stop-color="#FAFAFA"/>
<stop offset="0.14" stop-color="#EEEEEE"/>
<stop offset="0.21" stop-color="#DADADA"/>
<stop offset="0.25" stop-color="#CCCCCC"/>
<stop offset="0.28" stop-color="#DADADA"/>
<stop offset="0.35" stop-color="#F4F4F4"/>
<stop offset="0.39" stop-color="white"/>
<stop offset="0.56" stop-color="#CCCCCC"/>
<stop offset="0.75" stop-color="white"/>
<stop offset="1" stop-color="#CCCCCC"/>
</linearGradient>
<linearGradient id="paint1_linear_77_647" x1="10.0302" y1="4.68641" x2="205.04" y2="61.5181" gradientUnits="userSpaceOnUse">
<stop stop-color="white"/>
<stop offset="0.07" stop-color="#FAFAFA"/>
<stop offset="0.14" stop-color="#EEEEEE"/>
<stop offset="0.21" stop-color="#DADADA"/>
<stop offset="0.25" stop-color="#CCCCCC"/>
<stop offset="0.28" stop-color="#DADADA"/>
<stop offset="0.35" stop-color="#F4F4F4"/>
<stop offset="0.39" stop-color="white"/>
<stop offset="0.56" stop-color="#CCCCCC"/>
<stop offset="0.75" stop-color="white"/>
<stop offset="1" stop-color="#CCCCCC"/>
</linearGradient>
<linearGradient id="paint2_linear_77_647" x1="10.9986" y1="1.36391" x2="206.009" y2="58.1983" gradientUnits="userSpaceOnUse">
<stop stop-color="white"/>
<stop offset="0.07" stop-color="#FAFAFA"/>
<stop offset="0.14" stop-color="#EEEEEE"/>
<stop offset="0.21" stop-color="#DADADA"/>
<stop offset="0.25" stop-color="#CCCCCC"/>
<stop offset="0.28" stop-color="#DADADA"/>
<stop offset="0.35" stop-color="#F4F4F4"/>
<stop offset="0.39" stop-color="white"/>
<stop offset="0.56" stop-color="#CCCCCC"/>
<stop offset="0.75" stop-color="white"/>
<stop offset="1" stop-color="#CCCCCC"/>
</linearGradient>
<linearGradient id="paint3_linear_77_647" x1="12.5152" y1="-3.83806" x2="207.525" y2="52.9936" gradientUnits="userSpaceOnUse">
<stop stop-color="white"/>
<stop offset="0.07" stop-color="#FAFAFA"/>
<stop offset="0.14" stop-color="#EEEEEE"/>
<stop offset="0.21" stop-color="#DADADA"/>
<stop offset="0.25" stop-color="#CCCCCC"/>
<stop offset="0.28" stop-color="#DADADA"/>
<stop offset="0.35" stop-color="#F4F4F4"/>
<stop offset="0.39" stop-color="white"/>
<stop offset="0.56" stop-color="#CCCCCC"/>
<stop offset="0.75" stop-color="white"/>
<stop offset="1" stop-color="#CCCCCC"/>
</linearGradient>
<linearGradient id="paint4_linear_77_647" x1="13.8164" y1="-8.30881" x2="208.829" y2="48.5229" gradientUnits="userSpaceOnUse">
<stop stop-color="white"/>
<stop offset="0.07" stop-color="#FAFAFA"/>
<stop offset="0.14" stop-color="#EEEEEE"/>
<stop offset="0.21" stop-color="#DADADA"/>
<stop offset="0.25" stop-color="#CCCCCC"/>
<stop offset="0.28" stop-color="#DADADA"/>
<stop offset="0.35" stop-color="#F4F4F4"/>
<stop offset="0.39" stop-color="white"/>
<stop offset="0.56" stop-color="#CCCCCC"/>
<stop offset="0.75" stop-color="white"/>
<stop offset="1" stop-color="#CCCCCC"/>
</linearGradient>
<linearGradient id="paint5_linear_77_647" x1="14.9348" y1="-12.1414" x2="209.945" y2="44.6902" gradientUnits="userSpaceOnUse">
<stop stop-color="white"/>
<stop offset="0.07" stop-color="#FAFAFA"/>
<stop offset="0.14" stop-color="#EEEEEE"/>
<stop offset="0.21" stop-color="#DADADA"/>
<stop offset="0.25" stop-color="#CCCCCC"/>
<stop offset="0.28" stop-color="#DADADA"/>
<stop offset="0.35" stop-color="#F4F4F4"/>
<stop offset="0.39" stop-color="white"/>
<stop offset="0.56" stop-color="#CCCCCC"/>
<stop offset="0.75" stop-color="white"/>
<stop offset="1" stop-color="#CCCCCC"/>
</linearGradient>
<linearGradient id="paint6_linear_77_647" x1="16.5797" y1="-17.7907" x2="211.592" y2="39.041" gradientUnits="userSpaceOnUse">
<stop stop-color="white"/>
<stop offset="0.07" stop-color="#FAFAFA"/>
<stop offset="0.14" stop-color="#EEEEEE"/>
<stop offset="0.21" stop-color="#DADADA"/>
<stop offset="0.25" stop-color="#CCCCCC"/>
<stop offset="0.28" stop-color="#DADADA"/>
<stop offset="0.35" stop-color="#F4F4F4"/>
<stop offset="0.39" stop-color="white"/>
<stop offset="0.56" stop-color="#CCCCCC"/>
<stop offset="0.75" stop-color="white"/>
<stop offset="1" stop-color="#CCCCCC"/>
</linearGradient>
<linearGradient id="paint7_linear_77_647" x1="18.0745" y1="-22.9135" x2="213.085" y2="33.9182" gradientUnits="userSpaceOnUse">
<stop stop-color="white"/>
<stop offset="0.07" stop-color="#FAFAFA"/>
<stop offset="0.14" stop-color="#EEEEEE"/>
<stop offset="0.21" stop-color="#DADADA"/>
<stop offset="0.25" stop-color="#CCCCCC"/>
<stop offset="0.28" stop-color="#DADADA"/>
<stop offset="0.35" stop-color="#F4F4F4"/>
<stop offset="0.39" stop-color="white"/>
<stop offset="0.56" stop-color="#CCCCCC"/>
<stop offset="0.75" stop-color="white"/>
<stop offset="1" stop-color="#CCCCCC"/>
</linearGradient>
<linearGradient id="paint8_linear_77_647" x1="19.5694" y1="-28.0497" x2="214.582" y2="28.7819" gradientUnits="userSpaceOnUse">
<stop stop-color="white"/>
<stop offset="0.07" stop-color="#FAFAFA"/>
<stop offset="0.14" stop-color="#EEEEEE"/>
<stop offset="0.21" stop-color="#DADADA"/>
<stop offset="0.25" stop-color="#CCCCCC"/>
<stop offset="0.28" stop-color="#DADADA"/>
<stop offset="0.35" stop-color="#F4F4F4"/>
<stop offset="0.39" stop-color="white"/>
<stop offset="0.56" stop-color="#CCCCCC"/>
<stop offset="0.75" stop-color="white"/>
<stop offset="1" stop-color="#CCCCCC"/>
</linearGradient>
<linearGradient id="paint9_linear_77_647" x1="20.7995" y1="-32.2697" x2="215.812" y2="24.562" gradientUnits="userSpaceOnUse">
<stop stop-color="white"/>
<stop offset="0.07" stop-color="#FAFAFA"/>
<stop offset="0.14" stop-color="#EEEEEE"/>
<stop offset="0.21" stop-color="#DADADA"/>
<stop offset="0.25" stop-color="#CCCCCC"/>
<stop offset="0.28" stop-color="#DADADA"/>
<stop offset="0.35" stop-color="#F4F4F4"/>
<stop offset="0.39" stop-color="white"/>
<stop offset="0.56" stop-color="#CCCCCC"/>
<stop offset="0.75" stop-color="white"/>
<stop offset="1" stop-color="#CCCCCC"/>
</linearGradient>
<linearGradient id="paint10_linear_77_647" x1="21.8062" y1="-35.7259" x2="216.819" y2="21.1058" gradientUnits="userSpaceOnUse">
<stop stop-color="white"/>
<stop offset="0.07" stop-color="#FAFAFA"/>
<stop offset="0.14" stop-color="#EEEEEE"/>
<stop offset="0.21" stop-color="#DADADA"/>
<stop offset="0.25" stop-color="#CCCCCC"/>
<stop offset="0.28" stop-color="#DADADA"/>
<stop offset="0.35" stop-color="#F4F4F4"/>
<stop offset="0.39" stop-color="white"/>
<stop offset="0.56" stop-color="#CCCCCC"/>
<stop offset="0.75" stop-color="white"/>
<stop offset="1" stop-color="#CCCCCC"/>
</linearGradient>
<linearGradient id="paint11_linear_77_647" x1="23.2738" y1="-40.7535" x2="218.284" y2="16.0782" gradientUnits="userSpaceOnUse">
<stop stop-color="white"/>
<stop offset="0.07" stop-color="#FAFAFA"/>
<stop offset="0.14" stop-color="#EEEEEE"/>
<stop offset="0.21" stop-color="#DADADA"/>
<stop offset="0.25" stop-color="#CCCCCC"/>
<stop offset="0.28" stop-color="#DADADA"/>
<stop offset="0.35" stop-color="#F4F4F4"/>
<stop offset="0.39" stop-color="white"/>
<stop offset="0.56" stop-color="#CCCCCC"/>
<stop offset="0.75" stop-color="white"/>
<stop offset="1" stop-color="#CCCCCC"/>
</linearGradient>
<linearGradient id="paint12_linear_77_647" x1="16.3125" y1="-16.8718" x2="211.322" y2="39.9598" gradientUnits="userSpaceOnUse">
<stop stop-color="white"/>
<stop offset="0.07" stop-color="#FAFAFA"/>
<stop offset="0.14" stop-color="#EEEEEE"/>
<stop offset="0.21" stop-color="#DADADA"/>
<stop offset="0.25" stop-color="#CCCCCC"/>
<stop offset="0.28" stop-color="#DADADA"/>
<stop offset="0.35" stop-color="#F4F4F4"/>
<stop offset="0.39" stop-color="white"/>
<stop offset="0.56" stop-color="#CCCCCC"/>
<stop offset="0.75" stop-color="white"/>
<stop offset="1" stop-color="#CCCCCC"/>
</linearGradient>
<clipPath id="clip0_77_647">
<rect width="205.908" height="21.0098" fill="white"/>
</clipPath>
</defs>
</svg>
