<svg width="1328" height="125" viewBox="0 0 1328 125" fill="none" xmlns="http://www.w3.org/2000/svg">
<g opacity="0.41" clip-path="url(#clip0_462_6744)">
<path d="M57.2832 134.697C47.5718 134.697 39.1271 133.022 31.9843 129.672C24.8415 126.322 18.895 121.681 14.1449 115.731C9.39473 109.781 5.85851 102.698 3.51863 94.4799C1.17874 86.2621 0 77.2767 0 67.5235C0 57.7703 1.17874 48.6103 3.51863 40.3926C5.85851 32.1748 9.41233 25.0911 14.1449 19.1415C18.895 13.1918 24.8415 8.56825 31.9843 5.28811C39.1271 1.99052 47.5542 0.333008 57.2832 0.333008C64.7075 0.333008 71.6568 1.55434 78.1135 3.99699C84.5702 6.43965 90.1824 9.84192 94.9149 14.2038C99.6651 18.5657 103.412 23.8174 106.139 29.9415C108.884 36.0656 110.309 42.8701 110.432 50.3551H84.535C84.0776 46.9528 83.11 43.8123 81.6145 40.916C80.1191 38.0197 78.2719 35.5596 76.0375 33.5182C73.8032 31.4769 71.2698 29.8891 68.4021 28.7551C65.5344 27.621 62.5084 27.0452 59.3064 27.0452C53.923 27.0452 49.3663 28.2665 45.5838 30.7092C41.8013 33.1518 38.7577 36.2924 36.4178 40.1483C34.0779 44.0042 32.3538 48.3486 31.2806 53.1642C30.1898 57.9797 29.6444 62.7778 29.6444 67.5409C29.6444 72.3041 30.1898 77.0847 31.2806 81.9177C32.3714 86.7332 34.0779 91.0777 36.4178 94.9336C38.7577 98.7895 41.8189 101.93 45.5838 104.373C49.3487 106.815 53.923 108.037 59.3064 108.037C62.5084 108.037 65.5344 107.461 68.4021 106.327C71.2522 105.193 73.8032 103.605 76.0375 101.564C78.2719 99.5223 80.1191 97.0622 81.6145 94.1659C83.0924 91.2696 84.0776 88.129 84.535 84.7268H110.432C110.309 92.2117 108.884 99.0163 106.139 105.14C103.395 111.264 99.6475 116.516 94.9149 120.878C90.1648 125.24 84.5702 128.642 78.1135 131.085C71.6568 133.528 64.7075 134.749 57.2832 134.749V134.697Z" fill="url(#paint0_linear_462_6744)"/>
<path d="M105.981 3.05481H139.601L169.105 53.9144L198.415 3.05481H232.194L183.496 83.1565V131.975H154.679V83.1565L105.981 3.05481Z" fill="url(#paint1_linear_462_6744)"/>
<path d="M239.056 131.975V3.05481H300.456C305.945 3.05481 310.976 3.87484 315.551 5.51491C320.125 7.15498 324.066 9.47551 327.391 12.4939C330.698 15.4949 333.284 19.0717 335.114 23.2067C336.944 27.3418 337.859 31.913 337.859 36.903C337.859 43.0271 336.627 48.4708 334.164 53.2339C331.701 57.9971 328.306 61.853 323.96 64.8017C329.678 67.7503 334.199 71.8854 337.507 77.2243C340.814 82.5633 342.486 88.6699 342.486 95.5966C342.486 101.04 341.536 105.995 339.653 110.479C337.771 114.963 335.114 118.784 331.683 121.96C328.253 125.135 324.171 127.595 319.421 129.358C314.671 131.12 309.393 131.992 303.552 131.992H239.073L239.056 131.975ZM267.873 27.0452V51.5415H292.732C297.869 51.5415 301.74 50.4423 304.309 48.2265C306.877 46.0107 308.161 42.9224 308.161 38.9619C308.161 35.2106 306.877 32.2969 304.309 30.2032C301.74 28.1095 297.869 27.0626 292.732 27.0626H267.873V27.0452ZM267.873 75.34V108.002H294.632C300.808 108.002 305.347 106.589 308.267 103.745C311.187 100.918 312.648 96.7656 312.648 91.3394C312.648 86.2272 311.152 82.3016 308.197 79.5099C305.223 76.7358 300.702 75.34 294.65 75.34H267.891H267.873Z" fill="url(#paint2_linear_462_6744)"/>
<path d="M355.152 131.975V3.05481L441.587 3.22929V27.0452H383.97V55.6243H434.726V79.4402H383.97V108.019H441.587V131.992H355.152V131.975Z" fill="url(#paint3_linear_462_6744)"/>
<path d="M555.802 131.801H526.984V83.3321H498.167C493.029 83.3321 489.564 84.3789 487.787 86.4726C486.01 88.5664 485.13 91.2707 485.13 94.5509V122.781L481.875 131.801H453.92L456.154 122.781V92.684C456.154 80.5579 462.382 73.0206 474.838 70.072C469.015 67.1233 464.441 62.9883 461.116 57.6493C457.808 52.3278 456.137 46.1339 456.137 39.1026C456.137 33.6589 457.087 28.7213 458.969 24.3071C460.852 19.8928 463.508 16.0893 466.939 12.9138C470.369 9.73835 474.451 7.27825 479.201 5.51605C483.951 3.75385 489.229 2.88147 495.07 2.88147H555.784V26.6974H503.99C497.815 26.6974 493.276 28.1455 490.355 31.0418C487.435 33.9381 485.975 38.1081 485.975 43.5342C485.975 48.5242 487.47 52.415 490.426 55.1892C493.399 57.9634 497.92 59.3592 503.972 59.3592H555.767V131.801H555.802Z" fill="url(#paint4_linear_462_6744)"/>
<path d="M660.023 26.8716C658.141 21.899 655.467 17.607 652.054 14.0128C648.641 10.4535 644.542 7.7142 639.791 5.76007C635.041 3.84084 629.763 2.88123 623.94 2.88123H563.244V26.6797H615.02C621.195 26.6797 625.752 28.1104 628.637 31.0241C631.558 33.9204 633.018 38.0729 633.018 43.534C633.018 48.5066 631.54 52.3974 628.549 55.1715C625.594 57.9631 621.072 59.3415 615.003 59.3415H563.226V131.784H592.008V83.3144H623.922C629.64 83.3144 634.848 82.3722 639.598 80.4181C644.348 78.4989 648.447 75.7945 651.86 72.2876C655.273 68.7457 657.983 64.5583 659.918 59.6904C661.853 54.8051 662.838 49.4313 662.838 43.534C662.838 37.6367 661.888 31.8616 660.006 26.8542L660.023 26.8716Z" fill="url(#paint5_linear_462_6744)"/>
<path d="M793.168 41.5101C790.336 33.3446 786.148 26.1911 780.677 20.067C775.17 13.943 768.45 9.14488 760.445 5.63792C752.422 2.09607 743.292 0.351318 733 0.351318C722.708 0.351318 713.718 2.13097 705.713 5.70771C697.708 9.30191 690.987 14.1349 685.481 20.259C680.009 26.383 675.804 33.5191 672.901 41.6147C669.981 49.7279 668.521 58.3469 668.521 67.5418C668.521 76.7367 669.963 85.3732 672.901 93.4688C675.804 101.582 680.009 108.683 685.481 114.807C690.987 120.931 697.708 125.782 705.713 129.358C713.718 132.918 722.813 134.732 733 134.732C743.186 134.732 752.282 132.918 760.287 129.358C768.291 125.799 775.012 120.931 780.519 114.807C785.99 108.683 790.195 101.582 793.098 93.4688C796.018 85.3557 797.478 76.7018 797.478 67.5418C797.478 58.3818 796.053 49.693 793.186 41.5275L793.168 41.5101ZM765.564 82.4769C764.21 87.4843 762.081 91.9684 759.213 95.9289C756.381 99.8895 752.757 103.117 748.394 105.612C747.268 106.275 746.071 106.851 744.822 107.305V108.247C744.822 114.807 739.491 120.094 732.876 120.094C726.261 120.094 720.931 114.807 720.931 108.247V107.27C719.717 106.781 718.556 106.24 717.447 105.595C713.049 103.1 709.425 99.8721 706.54 95.9115C703.672 91.9509 701.561 87.4669 700.188 82.4594C698.834 77.4869 698.13 72.4795 698.13 67.5069C698.13 62.5344 698.834 57.5269 700.188 52.5195C701.543 47.5469 703.672 43.0629 706.54 39.1023C709.407 35.1417 713.031 31.9139 717.447 29.4189C721.828 26.9239 727.018 25.6851 732.964 25.6851C738.911 25.6851 744.066 26.9239 748.394 29.4189C752.739 31.9139 756.363 35.1417 759.213 39.1023C762.081 43.0629 764.192 47.5469 765.564 52.5195C766.919 57.5269 767.623 62.4995 767.623 67.5069C767.623 72.5144 766.919 77.4869 765.564 82.4594V82.4769Z" fill="url(#paint6_linear_462_6744)"/>
<path d="M905.765 79.686C904.111 75.8824 901.929 72.6197 899.238 69.9154C896.563 67.1761 893.502 64.9428 890.071 63.1806C886.623 61.4184 883.087 59.9354 879.428 58.6617C875.768 57.4229 872.214 56.3586 868.696 55.5212C865.212 54.6662 862.116 53.916 859.354 53.2181C854.885 51.9793 851.155 50.8278 848.112 49.8333C845.103 48.8039 842.693 47.7396 840.916 46.588C839.139 45.4714 837.837 44.1454 837.063 42.6798C836.254 41.2142 835.849 39.452 835.849 37.4106C835.849 33.6768 837.679 30.7631 841.268 28.7217C844.857 26.6804 849.695 25.6684 855.765 25.6684C863.066 25.6684 868.555 26.7851 872.232 29.0532C875.891 31.3214 878.003 35.3518 878.548 41.1269H904.463C904.111 35.7008 903.02 30.4839 901.19 25.5812C899.361 20.6435 896.581 16.2991 892.781 12.5653C889.016 8.83154 884.195 5.83056 878.319 3.64962C872.408 1.43378 865.248 0.317139 856.785 0.317139C850.381 0.317139 844.153 1.17207 838.084 2.88193C832.032 4.57434 826.631 7.13913 821.881 10.524C817.148 13.9088 813.33 18.2358 810.392 23.4526C807.472 28.6519 806.012 34.8458 806.012 41.9644C806.012 49.589 807.577 55.6433 810.744 60.1971C813.876 64.716 817.869 68.3277 822.743 71.0669C827.581 73.8062 832.894 75.8999 838.594 77.3655C844.312 78.8311 849.748 80.3316 854.885 81.7971C858.879 82.9138 862.362 83.9606 865.353 84.8505C868.309 85.7752 870.772 86.7697 872.725 87.9212C874.66 89.0379 876.138 90.3988 877.105 91.9167C878.091 93.4347 878.548 95.3364 878.548 97.6046C878.548 101.565 876.753 104.531 873.164 106.468C869.575 108.387 864.438 109.347 857.823 109.347C849.361 109.347 843.01 108.195 838.77 105.875C834.53 103.554 832.014 99.5413 831.24 93.8883H805.149C806.311 106.59 811.201 116.57 819.91 123.811C828.601 131.052 840.723 134.716 856.257 134.716C862.661 134.716 868.977 133.878 875.223 132.238C881.451 130.598 886.993 128.033 891.866 124.596C896.704 121.124 900.68 116.779 903.689 111.58C906.732 106.381 908.245 100.187 908.245 93.0334C908.245 87.9387 907.401 83.4896 905.747 79.686H905.765Z" fill="url(#paint7_linear_462_6744)"/>
<path d="M912.027 3.07568V27.0486H947.372V131.978H976.154V27.0486H1011.5V3.07568H912.027Z" fill="url(#paint8_linear_462_6744)"/>
<path d="M1085.07 3.07568V86.7367C1085.07 89.4759 1084.7 92.1628 1083.95 94.8149C1083.23 97.4844 1082.07 99.9096 1080.53 102.056C1079 104.219 1077.05 105.964 1074.71 107.325C1072.37 108.668 1069.52 109.366 1066.21 109.366C1062.91 109.366 1060.21 108.668 1057.8 107.325C1055.39 105.981 1053.41 104.219 1051.8 102.056C1050.2 99.8921 1049.03 97.4844 1048.3 94.8149C1047.55 92.1628 1047.18 89.4585 1047.18 86.7367V3.07568H1018.4V86.7367C1018.4 94.2391 1019.47 100.904 1021.65 106.801C1023.83 112.699 1026.93 117.724 1030.99 121.859C1035.06 125.994 1040.07 129.169 1046.02 131.367C1051.96 133.566 1058.72 134.7 1066.25 134.7C1073.78 134.7 1080.53 133.583 1086.48 131.367C1092.43 129.152 1097.44 125.994 1101.51 121.859C1105.57 117.724 1108.67 112.681 1110.85 106.801C1113.03 100.922 1114.1 94.2391 1114.1 86.7367V3.07568H1085.14H1085.07Z" fill="url(#paint9_linear_462_6744)"/>
<path d="M1229.46 122.958V93.0352C1229.46 86.6843 1227.86 81.6769 1224.73 77.9954C1221.56 74.314 1216.93 71.7318 1210.76 70.2313C1216.58 67.3001 1221.17 63.165 1224.46 57.8435C1227.77 52.4871 1229.44 46.3805 1229.44 39.4713C1229.44 34.0102 1228.49 29.0551 1226.61 24.5711C1224.73 20.087 1222.05 16.266 1218.64 13.108C1215.23 9.91512 1211.13 7.47246 1206.38 5.69281C1201.63 3.93061 1196.35 3.07568 1190.53 3.07568H1129.83V131.996H1158.61V83.5263H1187.43C1192.58 83.5263 1196.03 84.5557 1197.81 86.6669C1199.59 88.7606 1200.48 91.4649 1200.48 94.7451V122.975L1203.74 131.996H1231.71L1229.48 122.975L1229.46 122.958ZM1195.17 55.5404C1192.18 58.2972 1187.66 59.7104 1181.61 59.7104H1158.61V27.0486H1181.61C1187.78 27.0486 1192.34 28.4619 1195.26 31.3058C1198.16 34.1149 1199.6 38.2674 1199.6 43.7285C1199.6 48.8231 1198.13 52.7488 1195.17 55.5404Z" fill="url(#paint10_linear_462_6744)"/>
<path d="M1241.56 131.977V3.05737L1328 3.23185V27.0477H1270.38V55.6268H1321.14V79.4427H1270.38V108.022H1328V131.995H1241.56V131.977Z" fill="url(#paint11_linear_462_6744)"/>
<path d="M732.895 47.9464C724.169 47.9464 717.096 54.9603 717.096 63.6143C717.096 70.4188 721.512 76.1765 727.634 78.3226V94.9501C727.634 97.8289 729.992 100.167 732.895 100.167C735.798 100.167 738.155 97.8289 738.155 94.9501V78.3226C744.278 76.1591 748.676 70.4188 748.693 63.6143C748.693 54.9603 741.603 47.9464 732.877 47.9464H732.895ZM732.895 68.8311C729.992 68.8311 727.634 66.4931 727.634 63.6143C727.634 60.7355 729.992 58.38 732.895 58.38C735.815 58.38 738.155 60.7355 738.173 63.6143C738.173 66.4931 735.815 68.8311 732.895 68.8311Z" fill="url(#paint12_linear_462_6744)"/>
<rect y="0.333008" width="1328" height="134.381" fill="url(#paint13_linear_462_6744)"/>
</g>
<defs>
<linearGradient id="paint0_linear_462_6744" x1="53.9757" y1="66.7384" x2="1310.06" y2="435.848" gradientUnits="userSpaceOnUse">
<stop stop-color="white"/>
<stop offset="0.07" stop-color="#FAFAFA"/>
<stop offset="0.14" stop-color="#EEEEEE"/>
<stop offset="0.21" stop-color="#DADADA"/>
<stop offset="0.25" stop-color="#CCCCCC"/>
<stop offset="0.28" stop-color="#DADADA"/>
<stop offset="0.35" stop-color="#F4F4F4"/>
<stop offset="0.39" stop-color="white"/>
<stop offset="0.56" stop-color="#CCCCCC"/>
<stop offset="0.75" stop-color="white"/>
<stop offset="1" stop-color="#CCCCCC"/>
</linearGradient>
<linearGradient id="paint1_linear_462_6744" x1="64.6899" y1="30.3079" x2="1320.76" y2="399.417" gradientUnits="userSpaceOnUse">
<stop stop-color="white"/>
<stop offset="0.07" stop-color="#FAFAFA"/>
<stop offset="0.14" stop-color="#EEEEEE"/>
<stop offset="0.21" stop-color="#DADADA"/>
<stop offset="0.25" stop-color="#CCCCCC"/>
<stop offset="0.28" stop-color="#DADADA"/>
<stop offset="0.35" stop-color="#F4F4F4"/>
<stop offset="0.39" stop-color="white"/>
<stop offset="0.56" stop-color="#CCCCCC"/>
<stop offset="0.75" stop-color="white"/>
<stop offset="1" stop-color="#CCCCCC"/>
</linearGradient>
<linearGradient id="paint2_linear_462_6744" x1="70.9357" y1="9.05675" x2="1327" y2="378.184" gradientUnits="userSpaceOnUse">
<stop stop-color="white"/>
<stop offset="0.07" stop-color="#FAFAFA"/>
<stop offset="0.14" stop-color="#EEEEEE"/>
<stop offset="0.21" stop-color="#DADADA"/>
<stop offset="0.25" stop-color="#CCCCCC"/>
<stop offset="0.28" stop-color="#DADADA"/>
<stop offset="0.35" stop-color="#F4F4F4"/>
<stop offset="0.39" stop-color="white"/>
<stop offset="0.56" stop-color="#CCCCCC"/>
<stop offset="0.75" stop-color="white"/>
<stop offset="1" stop-color="#CCCCCC"/>
</linearGradient>
<linearGradient id="paint3_linear_462_6744" x1="80.7171" y1="-24.2157" x2="1336.78" y2="344.894" gradientUnits="userSpaceOnUse">
<stop stop-color="white"/>
<stop offset="0.07" stop-color="#FAFAFA"/>
<stop offset="0.14" stop-color="#EEEEEE"/>
<stop offset="0.21" stop-color="#DADADA"/>
<stop offset="0.25" stop-color="#CCCCCC"/>
<stop offset="0.28" stop-color="#DADADA"/>
<stop offset="0.35" stop-color="#F4F4F4"/>
<stop offset="0.39" stop-color="white"/>
<stop offset="0.56" stop-color="#CCCCCC"/>
<stop offset="0.75" stop-color="white"/>
<stop offset="1" stop-color="#CCCCCC"/>
</linearGradient>
<linearGradient id="paint4_linear_462_6744" x1="89.1087" y1="-52.8111" x2="1345.19" y2="316.299" gradientUnits="userSpaceOnUse">
<stop stop-color="white"/>
<stop offset="0.07" stop-color="#FAFAFA"/>
<stop offset="0.14" stop-color="#EEEEEE"/>
<stop offset="0.21" stop-color="#DADADA"/>
<stop offset="0.25" stop-color="#CCCCCC"/>
<stop offset="0.28" stop-color="#DADADA"/>
<stop offset="0.35" stop-color="#F4F4F4"/>
<stop offset="0.39" stop-color="white"/>
<stop offset="0.56" stop-color="#CCCCCC"/>
<stop offset="0.75" stop-color="white"/>
<stop offset="1" stop-color="#CCCCCC"/>
</linearGradient>
<linearGradient id="paint5_linear_462_6744" x1="96.322" y1="-77.3251" x2="1352.39" y2="291.784" gradientUnits="userSpaceOnUse">
<stop stop-color="white"/>
<stop offset="0.07" stop-color="#FAFAFA"/>
<stop offset="0.14" stop-color="#EEEEEE"/>
<stop offset="0.21" stop-color="#DADADA"/>
<stop offset="0.25" stop-color="#CCCCCC"/>
<stop offset="0.28" stop-color="#DADADA"/>
<stop offset="0.35" stop-color="#F4F4F4"/>
<stop offset="0.39" stop-color="white"/>
<stop offset="0.56" stop-color="#CCCCCC"/>
<stop offset="0.75" stop-color="white"/>
<stop offset="1" stop-color="#CCCCCC"/>
</linearGradient>
<linearGradient id="paint6_linear_462_6744" x1="106.93" y1="-113.459" x2="1363.02" y2="255.651" gradientUnits="userSpaceOnUse">
<stop stop-color="white"/>
<stop offset="0.07" stop-color="#FAFAFA"/>
<stop offset="0.14" stop-color="#EEEEEE"/>
<stop offset="0.21" stop-color="#DADADA"/>
<stop offset="0.25" stop-color="#CCCCCC"/>
<stop offset="0.28" stop-color="#DADADA"/>
<stop offset="0.35" stop-color="#F4F4F4"/>
<stop offset="0.39" stop-color="white"/>
<stop offset="0.56" stop-color="#CCCCCC"/>
<stop offset="0.75" stop-color="white"/>
<stop offset="1" stop-color="#CCCCCC"/>
</linearGradient>
<linearGradient id="paint7_linear_462_6744" x1="116.572" y1="-146.225" x2="1372.64" y2="222.885" gradientUnits="userSpaceOnUse">
<stop stop-color="white"/>
<stop offset="0.07" stop-color="#FAFAFA"/>
<stop offset="0.14" stop-color="#EEEEEE"/>
<stop offset="0.21" stop-color="#DADADA"/>
<stop offset="0.25" stop-color="#CCCCCC"/>
<stop offset="0.28" stop-color="#DADADA"/>
<stop offset="0.35" stop-color="#F4F4F4"/>
<stop offset="0.39" stop-color="white"/>
<stop offset="0.56" stop-color="#CCCCCC"/>
<stop offset="0.75" stop-color="white"/>
<stop offset="1" stop-color="#CCCCCC"/>
</linearGradient>
<linearGradient id="paint8_linear_462_6744" x1="126.213" y1="-179.077" x2="1382.3" y2="190.033" gradientUnits="userSpaceOnUse">
<stop stop-color="white"/>
<stop offset="0.07" stop-color="#FAFAFA"/>
<stop offset="0.14" stop-color="#EEEEEE"/>
<stop offset="0.21" stop-color="#DADADA"/>
<stop offset="0.25" stop-color="#CCCCCC"/>
<stop offset="0.28" stop-color="#DADADA"/>
<stop offset="0.35" stop-color="#F4F4F4"/>
<stop offset="0.39" stop-color="white"/>
<stop offset="0.56" stop-color="#CCCCCC"/>
<stop offset="0.75" stop-color="white"/>
<stop offset="1" stop-color="#CCCCCC"/>
</linearGradient>
<linearGradient id="paint9_linear_462_6744" x1="134.147" y1="-206.068" x2="1390.23" y2="163.042" gradientUnits="userSpaceOnUse">
<stop stop-color="white"/>
<stop offset="0.07" stop-color="#FAFAFA"/>
<stop offset="0.14" stop-color="#EEEEEE"/>
<stop offset="0.21" stop-color="#DADADA"/>
<stop offset="0.25" stop-color="#CCCCCC"/>
<stop offset="0.28" stop-color="#DADADA"/>
<stop offset="0.35" stop-color="#F4F4F4"/>
<stop offset="0.39" stop-color="white"/>
<stop offset="0.56" stop-color="#CCCCCC"/>
<stop offset="0.75" stop-color="white"/>
<stop offset="1" stop-color="#CCCCCC"/>
</linearGradient>
<linearGradient id="paint10_linear_462_6744" x1="140.639" y1="-228.174" x2="1396.72" y2="140.935" gradientUnits="userSpaceOnUse">
<stop stop-color="white"/>
<stop offset="0.07" stop-color="#FAFAFA"/>
<stop offset="0.14" stop-color="#EEEEEE"/>
<stop offset="0.21" stop-color="#DADADA"/>
<stop offset="0.25" stop-color="#CCCCCC"/>
<stop offset="0.28" stop-color="#DADADA"/>
<stop offset="0.35" stop-color="#F4F4F4"/>
<stop offset="0.39" stop-color="white"/>
<stop offset="0.56" stop-color="#CCCCCC"/>
<stop offset="0.75" stop-color="white"/>
<stop offset="1" stop-color="#CCCCCC"/>
</linearGradient>
<linearGradient id="paint11_linear_462_6744" x1="150.104" y1="-260.331" x2="1406.17" y2="108.779" gradientUnits="userSpaceOnUse">
<stop stop-color="white"/>
<stop offset="0.07" stop-color="#FAFAFA"/>
<stop offset="0.14" stop-color="#EEEEEE"/>
<stop offset="0.21" stop-color="#DADADA"/>
<stop offset="0.25" stop-color="#CCCCCC"/>
<stop offset="0.28" stop-color="#DADADA"/>
<stop offset="0.35" stop-color="#F4F4F4"/>
<stop offset="0.39" stop-color="white"/>
<stop offset="0.56" stop-color="#CCCCCC"/>
<stop offset="0.75" stop-color="white"/>
<stop offset="1" stop-color="#CCCCCC"/>
</linearGradient>
<linearGradient id="paint12_linear_462_6744" x1="105.207" y1="-107.581" x2="1361.27" y2="261.528" gradientUnits="userSpaceOnUse">
<stop stop-color="white"/>
<stop offset="0.07" stop-color="#FAFAFA"/>
<stop offset="0.14" stop-color="#EEEEEE"/>
<stop offset="0.21" stop-color="#DADADA"/>
<stop offset="0.25" stop-color="#CCCCCC"/>
<stop offset="0.28" stop-color="#DADADA"/>
<stop offset="0.35" stop-color="#F4F4F4"/>
<stop offset="0.39" stop-color="white"/>
<stop offset="0.56" stop-color="#CCCCCC"/>
<stop offset="0.75" stop-color="white"/>
<stop offset="1" stop-color="#CCCCCC"/>
</linearGradient>
<linearGradient id="paint13_linear_462_6744" x1="664" y1="-32.8143" x2="664" y2="143.673" gradientUnits="userSpaceOnUse">
<stop stop-color="#11121B" stop-opacity="0"/>
<stop offset="0.831428" stop-color="#11121B"/>
</linearGradient>
<clipPath id="clip0_462_6744">
<rect width="1328" height="134.381" fill="white" transform="translate(0 0.333008)"/>
</clipPath>
</defs>
</svg>
