<svg width="80" height="75" viewBox="0 0 80 75" fill="none" xmlns="http://www.w3.org/2000/svg">
<path d="M50.2504 42.3962V74.1816H80V49.0879C80 35.5017 78.3558 25.6671 75.0674 19.5837C70.7514 11.4726 63.9178 5.33858 54.5665 1.18164L47.7842 11.8275C53.4361 14.1594 57.5978 17.6573 60.2698 22.3212C62.9416 26.8837 64.4316 33.5754 64.7399 42.3962H50.2504ZM2.46638 42.3962V74.1816H32.2158V49.0879C32.2158 35.5017 30.5717 25.6671 27.2832 19.5837C22.9674 11.4726 16.1336 5.33858 6.78227 1.18164L0 11.8275C5.65189 14.1594 9.81384 17.6573 12.4856 22.3212C15.1574 26.8837 16.6474 33.5754 16.9557 42.3962H2.46638Z" fill="url(#paint0_linear_869_1324)"/>
<defs>
<linearGradient id="paint0_linear_869_1324" x1="80" y1="37.6816" x2="-22.0457" y2="39.5346" gradientUnits="userSpaceOnUse">
<stop stop-color="#09C6DE"/>
<stop offset="1" stop-color="#460389"/>
</linearGradient>
</defs>
</svg>
