<svg width="871" height="154" viewBox="0 0 871 154" fill="none" xmlns="http://www.w3.org/2000/svg">
<path d="M110.472 31.0889C108.329 25.4274 105.285 20.5406 101.399 16.4484C97.5126 12.3959 92.8454 9.27713 87.4371 7.05226C82.0288 4.86711 76.0196 3.77454 69.3894 3.77454H0.283394V30.8704H59.2338C66.2646 30.8704 71.4526 32.4993 74.7377 35.8167C78.0628 39.1143 79.7253 43.8422 79.7253 50.0599C79.7253 55.7214 78.0427 60.1513 74.6375 63.3099C71.2723 66.4883 66.1244 68.0576 59.2138 68.0576H0.263405V150.537H33.0337V95.3521H69.3694C75.8794 95.3521 81.8085 94.2794 87.2168 92.0545C92.6251 89.8693 97.2922 86.7903 101.178 82.7974C105.064 78.7648 108.149 73.9972 110.352 68.4549C112.556 62.8927 113.677 56.7743 113.677 50.0599C113.677 43.3456 112.596 36.7703 110.452 31.069L110.472 31.0889Z" fill="url(#paint0_linear_77_670)"/>
<path d="M262.065 47.7553C258.84 38.4585 254.073 30.3138 247.843 23.3412C241.574 16.3686 233.922 10.9057 224.808 6.91288C215.674 2.8803 205.278 0.893799 193.56 0.893799C181.842 0.893799 171.606 2.92003 162.492 6.99234C153.378 11.0845 145.727 16.5871 139.457 23.5597C133.227 30.5323 128.44 38.6571 125.135 47.8745C121.81 57.1117 120.147 66.925 120.147 77.3938C120.147 87.8626 121.79 97.6958 125.135 106.913C128.44 116.15 133.227 124.235 139.457 131.208C145.727 138.181 153.378 143.703 162.492 147.775C171.606 151.828 181.962 153.894 193.56 153.894C205.158 153.894 215.514 151.828 224.628 147.775C233.742 143.723 241.393 138.181 247.663 131.208C253.893 124.235 258.68 116.15 261.985 106.913C265.31 97.6759 266.973 87.8229 266.973 77.3938C266.973 66.9647 265.35 57.0719 262.085 47.7751L262.065 47.7553ZM230.637 94.3982C229.094 100.099 226.671 105.205 223.406 109.714C220.181 114.223 216.054 117.898 211.087 120.739C209.805 121.494 208.443 122.15 207.021 122.666V123.739C207.021 131.208 200.951 137.227 193.42 137.227C185.888 137.227 179.819 131.208 179.819 123.739V122.626C178.437 122.07 177.115 121.454 175.853 120.719C170.845 117.879 166.719 114.204 163.434 109.694C160.169 105.185 157.765 100.08 156.203 94.3783C154.66 88.7168 153.859 83.0156 153.859 77.3541C153.859 71.6926 154.66 65.9913 156.203 60.2901C157.745 54.6285 160.169 49.5232 163.434 45.0139C166.699 40.5045 170.825 36.8295 175.853 33.9888C180.84 31.1481 186.749 29.7377 193.52 29.7377C200.29 29.7377 206.159 31.1481 211.087 33.9888C216.034 36.8295 220.161 40.5045 223.406 45.0139C226.671 49.5232 229.074 54.6285 230.637 60.2901C232.179 65.9913 232.98 71.6528 232.98 77.3541C232.98 83.0553 232.179 88.7168 230.637 94.3783V94.3982Z" fill="url(#paint1_linear_77_670)"/>
<path d="M390.262 91.2207C388.379 86.8902 385.895 83.1754 382.831 80.0964C379.786 76.9776 376.301 74.4348 372.395 72.4285C368.468 70.4221 364.442 68.7336 360.276 67.2834C356.109 65.873 352.063 64.6613 348.057 63.7078C344.091 62.7344 340.566 61.8802 337.421 61.0856C332.333 59.6752 328.087 58.3641 324.621 57.2318C321.196 56.0597 318.452 54.848 316.429 53.5369C314.406 52.2655 312.923 50.7558 312.042 49.0871C311.12 47.4185 310.66 45.4121 310.66 43.0879C310.66 38.8368 312.743 35.5194 316.829 33.1952C320.915 30.871 326.424 29.7188 333.335 29.7188C341.647 29.7188 347.897 30.9901 352.083 33.5726C356.25 36.155 358.653 40.7438 359.274 47.3191H388.78C388.379 41.1411 387.137 35.2015 385.054 29.6195C382.971 23.9977 379.806 19.0513 375.479 14.8002C371.193 10.5491 365.704 7.13231 359.014 4.64919C352.284 2.12634 344.131 0.85498 334.496 0.85498C327.205 0.85498 320.114 1.82836 313.204 3.77513C306.313 5.70203 300.164 8.62219 294.755 12.476C289.367 16.3298 285.02 21.2563 281.675 27.1959C278.35 33.1157 276.688 40.1678 276.688 48.2727C276.688 56.9537 278.47 63.8468 282.076 69.0316C285.641 74.1766 290.188 78.2886 295.737 81.4074C301.245 84.5262 307.295 86.91 313.785 88.5787C320.295 90.2474 326.484 91.9557 332.333 93.6244C336.88 94.8958 340.846 96.0877 344.251 97.1008C347.616 98.1536 350.421 99.2859 352.644 100.597C354.848 101.868 356.53 103.418 357.632 105.146C358.754 106.874 359.274 109.04 359.274 111.622C359.274 116.131 357.231 119.508 353.145 121.713C349.059 123.899 343.21 124.991 335.678 124.991C326.043 124.991 318.812 123.68 313.985 121.038C309.157 118.396 306.293 113.827 305.412 107.391H275.706C277.028 121.853 282.597 133.215 292.512 141.459C302.407 149.703 316.208 153.875 333.895 153.875C341.187 153.875 348.378 152.921 355.489 151.054C362.579 149.187 368.889 146.267 374.438 142.353C379.946 138.4 384.473 133.454 387.898 127.534C391.364 121.614 393.086 114.562 393.086 106.417C393.086 100.617 392.125 95.5513 390.242 91.2207H390.262Z" fill="url(#paint2_linear_77_670)"/>
<path d="M397.393 3.99561V31.2901H437.634V150.758H470.405V31.2901H510.646V3.99561H397.393Z" fill="url(#paint3_linear_77_670)"/>
<path d="M594.415 3.99561V99.2482C594.415 102.367 593.994 105.426 593.133 108.446C592.312 111.485 590.99 114.246 589.247 116.69C587.504 119.153 585.281 121.139 582.617 122.689C579.953 124.218 576.708 125.013 572.942 125.013C569.176 125.013 566.112 124.218 563.367 122.689C560.623 121.159 558.36 119.153 556.537 116.69C554.714 114.226 553.372 111.485 552.551 108.446C551.689 105.426 551.269 102.347 551.269 99.2482V3.99561H518.498V99.2482C518.498 107.79 519.72 115.379 522.204 122.093C524.688 128.807 528.213 134.528 532.84 139.236C537.468 143.944 543.176 147.56 549.947 150.063C556.717 152.566 564.409 153.857 572.982 153.857C581.555 153.857 589.247 152.586 596.017 150.063C602.788 147.54 608.496 143.944 613.124 139.236C617.751 134.528 621.276 128.787 623.76 122.093C626.244 115.398 627.466 107.79 627.466 99.2482V3.99561H594.495H594.415Z" fill="url(#paint4_linear_77_670)"/>
<path d="M758.807 140.488V106.419C758.807 99.1886 756.984 93.4873 753.419 89.2958C749.813 85.1043 744.545 82.1643 737.514 80.4559C744.144 77.1186 749.372 72.4106 753.118 66.3518C756.884 60.2532 758.787 53.3005 758.787 45.4339C758.787 39.2162 757.705 33.5746 755.562 28.4693C753.419 23.364 750.374 19.0135 746.488 15.418C742.602 11.7827 737.935 9.00158 732.527 6.97535C727.118 4.96899 721.109 3.99561 714.479 3.99561H645.373V150.778H678.143V95.593H710.953C716.822 95.593 720.748 96.765 722.772 99.1687C724.795 101.552 725.816 104.632 725.816 108.366V140.508L729.522 150.778H761.371L758.827 140.508L758.807 140.488ZM719.767 63.7296C716.362 66.8682 711.214 68.4773 704.323 68.4773H678.143V31.2901H704.323C711.354 31.2901 716.542 32.8991 719.867 36.1371C723.172 39.3354 724.815 44.0633 724.815 50.281C724.815 56.0816 723.132 60.5512 719.767 63.7296Z" fill="url(#paint5_linear_77_670)"/>
<path d="M772.589 150.757V3.97473L871 4.17338V31.2891H805.399V63.8279H863.188V90.9436H805.399V123.482H871V150.777H772.589V150.757Z" fill="url(#paint6_linear_77_670)"/>
<defs>
<linearGradient id="paint0_linear_77_670" x1="-531.332" y1="-87.5448" x2="898.769" y2="332.706" gradientUnits="userSpaceOnUse">
<stop stop-color="white"/>
<stop offset="0.07" stop-color="#FAFAFA"/>
<stop offset="0.14" stop-color="#EEEEEE"/>
<stop offset="0.21" stop-color="#DADADA"/>
<stop offset="0.25" stop-color="#CCCCCC"/>
<stop offset="0.28" stop-color="#DADADA"/>
<stop offset="0.35" stop-color="#F4F4F4"/>
<stop offset="0.39" stop-color="white"/>
<stop offset="0.56" stop-color="#CCCCCC"/>
<stop offset="0.75" stop-color="white"/>
<stop offset="1" stop-color="#CCCCCC"/>
</linearGradient>
<linearGradient id="paint1_linear_77_670" x1="-519.254" y1="-128.685" x2="910.867" y2="291.566" gradientUnits="userSpaceOnUse">
<stop stop-color="white"/>
<stop offset="0.07" stop-color="#FAFAFA"/>
<stop offset="0.14" stop-color="#EEEEEE"/>
<stop offset="0.21" stop-color="#DADADA"/>
<stop offset="0.25" stop-color="#CCCCCC"/>
<stop offset="0.28" stop-color="#DADADA"/>
<stop offset="0.35" stop-color="#F4F4F4"/>
<stop offset="0.39" stop-color="white"/>
<stop offset="0.56" stop-color="#CCCCCC"/>
<stop offset="0.75" stop-color="white"/>
<stop offset="1" stop-color="#CCCCCC"/>
</linearGradient>
<linearGradient id="paint2_linear_77_670" x1="-508.277" y1="-165.991" x2="921.824" y2="254.26" gradientUnits="userSpaceOnUse">
<stop stop-color="white"/>
<stop offset="0.07" stop-color="#FAFAFA"/>
<stop offset="0.14" stop-color="#EEEEEE"/>
<stop offset="0.21" stop-color="#DADADA"/>
<stop offset="0.25" stop-color="#CCCCCC"/>
<stop offset="0.28" stop-color="#DADADA"/>
<stop offset="0.35" stop-color="#F4F4F4"/>
<stop offset="0.39" stop-color="white"/>
<stop offset="0.56" stop-color="#CCCCCC"/>
<stop offset="0.75" stop-color="white"/>
<stop offset="1" stop-color="#CCCCCC"/>
</linearGradient>
<linearGradient id="paint3_linear_77_670" x1="-497.3" y1="-203.395" x2="932.821" y2="216.856" gradientUnits="userSpaceOnUse">
<stop stop-color="white"/>
<stop offset="0.07" stop-color="#FAFAFA"/>
<stop offset="0.14" stop-color="#EEEEEE"/>
<stop offset="0.21" stop-color="#DADADA"/>
<stop offset="0.25" stop-color="#CCCCCC"/>
<stop offset="0.28" stop-color="#DADADA"/>
<stop offset="0.35" stop-color="#F4F4F4"/>
<stop offset="0.39" stop-color="white"/>
<stop offset="0.56" stop-color="#CCCCCC"/>
<stop offset="0.75" stop-color="white"/>
<stop offset="1" stop-color="#CCCCCC"/>
</linearGradient>
<linearGradient id="paint4_linear_77_670" x1="-488.267" y1="-234.126" x2="941.855" y2="186.126" gradientUnits="userSpaceOnUse">
<stop stop-color="white"/>
<stop offset="0.07" stop-color="#FAFAFA"/>
<stop offset="0.14" stop-color="#EEEEEE"/>
<stop offset="0.21" stop-color="#DADADA"/>
<stop offset="0.25" stop-color="#CCCCCC"/>
<stop offset="0.28" stop-color="#DADADA"/>
<stop offset="0.35" stop-color="#F4F4F4"/>
<stop offset="0.39" stop-color="white"/>
<stop offset="0.56" stop-color="#CCCCCC"/>
<stop offset="0.75" stop-color="white"/>
<stop offset="1" stop-color="#CCCCCC"/>
</linearGradient>
<linearGradient id="paint5_linear_77_670" x1="-480.875" y1="-259.295" x2="949.246" y2="160.956" gradientUnits="userSpaceOnUse">
<stop stop-color="white"/>
<stop offset="0.07" stop-color="#FAFAFA"/>
<stop offset="0.14" stop-color="#EEEEEE"/>
<stop offset="0.21" stop-color="#DADADA"/>
<stop offset="0.25" stop-color="#CCCCCC"/>
<stop offset="0.28" stop-color="#DADADA"/>
<stop offset="0.35" stop-color="#F4F4F4"/>
<stop offset="0.39" stop-color="white"/>
<stop offset="0.56" stop-color="#CCCCCC"/>
<stop offset="0.75" stop-color="white"/>
<stop offset="1" stop-color="#CCCCCC"/>
</linearGradient>
<linearGradient id="paint6_linear_77_670" x1="-470.098" y1="-295.907" x2="960.003" y2="124.344" gradientUnits="userSpaceOnUse">
<stop stop-color="white"/>
<stop offset="0.07" stop-color="#FAFAFA"/>
<stop offset="0.14" stop-color="#EEEEEE"/>
<stop offset="0.21" stop-color="#DADADA"/>
<stop offset="0.25" stop-color="#CCCCCC"/>
<stop offset="0.28" stop-color="#DADADA"/>
<stop offset="0.35" stop-color="#F4F4F4"/>
<stop offset="0.39" stop-color="white"/>
<stop offset="0.56" stop-color="#CCCCCC"/>
<stop offset="0.75" stop-color="white"/>
<stop offset="1" stop-color="#CCCCCC"/>
</linearGradient>
</defs>
</svg>
