<svg width="1512" height="991" viewBox="0 0 1512 991" fill="none" xmlns="http://www.w3.org/2000/svg">
<g clip-path="url(#clip0_77_681)">
<mask id="path-1-inside-1_77_681" fill="white">
<path d="M0 0H1506V82.5833H0V0Z"/>
</mask>
<path d="M0 0.825833H1506V-0.825833H0V0.825833Z" fill="#A7A7AF" fill-opacity="0.075" mask="url(#path-1-inside-1_77_681)"/>
<mask id="path-3-inside-2_77_681" fill="white">
<path d="M0 82.5833H1506V165.167H0V82.5833Z"/>
</mask>
<path d="M0 83.4091H1506V81.7574H0V83.4091Z" fill="#A7A7AF" fill-opacity="0.075" mask="url(#path-3-inside-2_77_681)"/>
<mask id="path-5-inside-3_77_681" fill="white">
<path d="M0 165.167H1506V247.75H0V165.167Z"/>
</mask>
<path d="M0 165.993H1506V164.341H0V165.993Z" fill="#A7A7AF" fill-opacity="0.075" mask="url(#path-5-inside-3_77_681)"/>
<mask id="path-7-inside-4_77_681" fill="white">
<path d="M0 247.75H1506V330.333H0V247.75Z"/>
</mask>
<path d="M0 248.576H1506V246.924H0V248.576Z" fill="#A7A7AF" fill-opacity="0.075" mask="url(#path-7-inside-4_77_681)"/>
<mask id="path-9-inside-5_77_681" fill="white">
<path d="M0 330.333H1506V412.917H0V330.333Z"/>
</mask>
<path d="M0 331.159H1506V329.507H0V331.159Z" fill="#A7A7AF" fill-opacity="0.075" mask="url(#path-9-inside-5_77_681)"/>
<mask id="path-11-inside-6_77_681" fill="white">
<path d="M0 412.917H1506V495.5H0V412.917Z"/>
</mask>
<path d="M0 413.743H1506V412.091H0V413.743Z" fill="#A7A7AF" fill-opacity="0.075" mask="url(#path-11-inside-6_77_681)"/>
<mask id="path-13-inside-7_77_681" fill="white">
<path d="M0 495.5H1506V578.083H0V495.5Z"/>
</mask>
<path d="M0 496.326H1506V494.674H0V496.326Z" fill="#A7A7AF" fill-opacity="0.075" mask="url(#path-13-inside-7_77_681)"/>
<mask id="path-15-inside-8_77_681" fill="white">
<path d="M0 578.083H1506V660.667H0V578.083Z"/>
</mask>
<path d="M0 578.909H1506V577.258H0V578.909Z" fill="#A7A7AF" fill-opacity="0.075" mask="url(#path-15-inside-8_77_681)"/>
<mask id="path-17-inside-9_77_681" fill="white">
<path d="M0 660.667H1506V743.25H0V660.667Z"/>
</mask>
<path d="M0 661.493H1506V659.841H0V661.493Z" fill="#A7A7AF" fill-opacity="0.075" mask="url(#path-17-inside-9_77_681)"/>
<mask id="path-19-inside-10_77_681" fill="white">
<path d="M0 743.25H1506V825.833H0V743.25Z"/>
</mask>
<path d="M0 744.076H1506V742.424H0V744.076Z" fill="#A7A7AF" fill-opacity="0.075" mask="url(#path-19-inside-10_77_681)"/>
<mask id="path-21-inside-11_77_681" fill="white">
<path d="M0 825.833H1506V908.417H0V825.833Z"/>
</mask>
<path d="M0 826.659H1506V825.007H0V826.659Z" fill="#A7A7AF" fill-opacity="0.075" mask="url(#path-21-inside-11_77_681)"/>
<mask id="path-23-inside-12_77_681" fill="white">
<path d="M0 908.417H1506V991H0V908.417Z"/>
</mask>
<path d="M0 909.242H1506V907.591H0V909.242Z" fill="#A7A7AF" fill-opacity="0.075" mask="url(#path-23-inside-12_77_681)"/>
</g>
<g clip-path="url(#clip1_77_681)">
<mask id="path-25-inside-13_77_681" fill="white">
<path d="M-33 0H49.5833V991H-33V0Z"/>
</mask>
<path d="M-32.1742 991V0H-33.8258V991H-32.1742Z" fill="#A7A7AF" fill-opacity="0.075" mask="url(#path-25-inside-13_77_681)"/>
<mask id="path-27-inside-14_77_681" fill="white">
<path d="M49.5833 0H132.167V991H49.5833V0Z"/>
</mask>
<path d="M50.4091 991V0H48.7575V991H50.4091Z" fill="#A7A7AF" fill-opacity="0.075" mask="url(#path-27-inside-14_77_681)"/>
<mask id="path-29-inside-15_77_681" fill="white">
<path d="M132.167 0H214.75V991H132.167V0Z"/>
</mask>
<path d="M132.993 991V0H131.341V991H132.993Z" fill="#A7A7AF" fill-opacity="0.075" mask="url(#path-29-inside-15_77_681)"/>
<mask id="path-31-inside-16_77_681" fill="white">
<path d="M214.75 0H297.333V991H214.75V0Z"/>
</mask>
<path d="M215.576 991V0H213.924V991H215.576Z" fill="#A7A7AF" fill-opacity="0.075" mask="url(#path-31-inside-16_77_681)"/>
<mask id="path-33-inside-17_77_681" fill="white">
<path d="M297.333 0H379.917V991H297.333V0Z"/>
</mask>
<path d="M298.159 991V0H296.508V991H298.159Z" fill="#A7A7AF" fill-opacity="0.075" mask="url(#path-33-inside-17_77_681)"/>
<mask id="path-35-inside-18_77_681" fill="white">
<path d="M379.917 0H462.5V991H379.917V0Z"/>
</mask>
<path d="M380.742 991V0H379.091V991H380.742Z" fill="#A7A7AF" fill-opacity="0.075" mask="url(#path-35-inside-18_77_681)"/>
<mask id="path-37-inside-19_77_681" fill="white">
<path d="M462.5 0H545.083V991H462.5V0Z"/>
</mask>
<path d="M463.326 991V0H461.674V991H463.326Z" fill="#A7A7AF" fill-opacity="0.075" mask="url(#path-37-inside-19_77_681)"/>
<mask id="path-39-inside-20_77_681" fill="white">
<path d="M545.083 0H627.667V991H545.083V0Z"/>
</mask>
<path d="M545.909 991V0H544.257V991H545.909Z" fill="#A7A7AF" fill-opacity="0.075" mask="url(#path-39-inside-20_77_681)"/>
<mask id="path-41-inside-21_77_681" fill="white">
<path d="M627.667 0H710.25V991H627.667V0Z"/>
</mask>
<path d="M628.493 991V0H626.841V991H628.493Z" fill="#A7A7AF" fill-opacity="0.075" mask="url(#path-41-inside-21_77_681)"/>
<mask id="path-43-inside-22_77_681" fill="white">
<path d="M710.25 0H792.833V991H710.25V0Z"/>
</mask>
<path d="M711.076 991V0H709.424V991H711.076Z" fill="#A7A7AF" fill-opacity="0.075" mask="url(#path-43-inside-22_77_681)"/>
<mask id="path-45-inside-23_77_681" fill="white">
<path d="M792.833 0H875.417V991H792.833V0Z"/>
</mask>
<path d="M793.659 991V0H792.007V991H793.659Z" fill="#A7A7AF" fill-opacity="0.075" mask="url(#path-45-inside-23_77_681)"/>
<mask id="path-47-inside-24_77_681" fill="white">
<path d="M875.417 0H958V991H875.417V0Z"/>
</mask>
<path d="M876.243 991V0H874.591V991H876.243Z" fill="#A7A7AF" fill-opacity="0.075" mask="url(#path-47-inside-24_77_681)"/>
<mask id="path-49-inside-25_77_681" fill="white">
<path d="M958 0H1040.58V991H958V0Z"/>
</mask>
<path d="M958.826 991V0H957.174V991H958.826Z" fill="#A7A7AF" fill-opacity="0.075" mask="url(#path-49-inside-25_77_681)"/>
<mask id="path-51-inside-26_77_681" fill="white">
<path d="M1040.58 0H1123.17V991H1040.58V0Z"/>
</mask>
<path d="M1041.41 991V0H1039.76V991H1041.41Z" fill="#A7A7AF" fill-opacity="0.075" mask="url(#path-51-inside-26_77_681)"/>
<mask id="path-53-inside-27_77_681" fill="white">
<path d="M1123.17 0H1205.75V991H1123.17V0Z"/>
</mask>
<path d="M1123.99 991V0H1122.34V991H1123.99Z" fill="#A7A7AF" fill-opacity="0.075" mask="url(#path-53-inside-27_77_681)"/>
<mask id="path-55-inside-28_77_681" fill="white">
<path d="M1205.75 0H1288.33V991H1205.75V0Z"/>
</mask>
<path d="M1206.58 991V0H1204.92V991H1206.58Z" fill="#A7A7AF" fill-opacity="0.075" mask="url(#path-55-inside-28_77_681)"/>
<mask id="path-57-inside-29_77_681" fill="white">
<path d="M1288.33 0H1370.92V991H1288.33V0Z"/>
</mask>
<path d="M1289.16 991V0H1287.51V991H1289.16Z" fill="#A7A7AF" fill-opacity="0.075" mask="url(#path-57-inside-29_77_681)"/>
<mask id="path-59-inside-30_77_681" fill="white">
<path d="M1370.92 0H1453.5V991H1370.92V0Z"/>
</mask>
<path d="M1371.74 991V0H1370.09V991H1371.74Z" fill="#A7A7AF" fill-opacity="0.075" mask="url(#path-59-inside-30_77_681)"/>
<mask id="path-61-inside-31_77_681" fill="white">
<path d="M1453.5 0H1536.08V991H1453.5V0Z"/>
</mask>
<path d="M1454.33 991V0H1452.67V991H1454.33Z" fill="#A7A7AF" fill-opacity="0.075" mask="url(#path-61-inside-31_77_681)"/>
</g>
<defs>
<clipPath id="clip0_77_681">
<rect width="1506" height="991" fill="white"/>
</clipPath>
<clipPath id="clip1_77_681">
<rect width="1652" height="991" fill="white" transform="translate(-33)"/>
</clipPath>
</defs>
</svg>
